<svg xmlns="http://www.w3.org/2000/svg" xmlns:xlink="http://www.w3.org/1999/xlink" width="20" height="20" viewBox="0 0 20 20"><defs><style>.a{clip-path:url(#b);}.b{fill:#0fa6ff;}</style><clipPath id="b"><rect width="20" height="20"/></clipPath></defs><g id="a" class="a"><g transform="translate(-55.354 -0.5)"><g transform="translate(57.4 0.5)"><path class="b" d="M68.239.9c-.1-.1-.2-.2-.293-.2h-7.61A2.583,2.583,0,0,0,57.8,3.237V17.676a2.583,2.583,0,0,0,2.537,2.537H70.678a2.583,2.583,0,0,0,2.537-2.537V6.261c0-.1-.1-.2-.1-.293Zm.1,1.561,3.22,3.415H69.507A1.171,1.171,0,0,1,68.337,4.8h0ZM70.58,19.334H60.239a1.644,1.644,0,0,1-1.659-1.659V3.334a1.644,1.644,0,0,1,1.659-1.659h7.122V4.7A2,2,0,0,0,69.41,6.749h2.732V17.676a1.509,1.509,0,0,1-1.561,1.659Z" transform="translate(-57.41 -0.505)"/><path class="b" d="M70.571,20.5H60.229A2.831,2.831,0,0,1,57.4,17.671V3.329A2.831,2.831,0,0,1,60.229.5h7.61a.745.745,0,0,1,.488.2l4.78,5.073a.745.745,0,0,1,.2.488V17.671A2.691,2.691,0,0,1,70.571,20.5ZM67.839.988h-7.61a2.291,2.291,0,0,0-2.244,2.341V17.768a2.374,2.374,0,0,0,2.341,2.341H70.668a2.374,2.374,0,0,0,2.341-2.341V6.256c0-.1,0-.1-.1-.2L68.132.988Zm2.732,18.537H60.229a1.919,1.919,0,0,1-1.854-1.854V3.329a1.919,1.919,0,0,1,1.854-1.854h7.415V4.7A1.852,1.852,0,0,0,69.5,6.549h3.024v11.22a1.787,1.787,0,0,1-1.366,1.756l.1.1ZM60.229,1.963a1.334,1.334,0,0,0-1.366,1.366V17.768a1.334,1.334,0,0,0,1.366,1.366H70.571a1.334,1.334,0,0,0,1.366-1.366V7.037H69.4A2.374,2.374,0,0,1,67.059,4.7V1.963Zm9.268,4.1A1.334,1.334,0,0,1,68.132,4.7V1.866l4,4.2ZM68.62,3.037V4.7a.874.874,0,0,0,.878.878h1.561Z" transform="translate(-57.4 -0.5)"/></g><g transform="translate(60.815 15.915)"><path class="b" d="M69.393,16.5h-7.8a.488.488,0,1,0,0,.976h7.8a.488.488,0,0,0,0-.976Z" transform="translate(-60.905 -16.305)"/><path class="b" d="M69.388,17.666h-7.8a.683.683,0,0,1,0-1.366h7.8a.683.683,0,0,1,0,1.366ZM61.68,16.69a.2.2,0,1,0,0,.39h7.8a.2.2,0,0,0,0-.39Z" transform="translate(-60.9 -16.3)"/></g><g transform="translate(61.996 7.037)"><path class="b" d="M65.226,14.522a.472.472,0,0,0,.683,0h0L68.64,11.6a.483.483,0,0,0-.683-.683l-1.951,2.049V7.888a.488.488,0,0,0-.976,0v5.171L63.079,11.01a.483.483,0,0,0-.683.683Z" transform="translate(-62.114 -7.205)"/><path class="b" d="M65.515,14.907h0a.745.745,0,0,1-.488-.2L62.3,11.785a.683.683,0,0,1,.488-1.171h0a.745.745,0,0,1,.488.2l1.561,1.659V7.883a.683.683,0,1,1,1.366,0v4.488l1.561-1.659a.652.652,0,0,1,.976,0,.751.751,0,0,1,.1.976L66,14.712C65.905,14.907,65.71,14.907,65.515,14.907ZM62.783,11c-.1,0-.1,0-.2.1a.183.183,0,0,0,0,.293l2.732,2.927a.341.341,0,0,0,.2.1c.1,0,.1,0,.2-.1L68.442,11.3A.207.207,0,0,0,68.149,11l-2.341,2.537V7.883a.2.2,0,1,0-.39,0v5.756L62.978,11.1C62.881,11,62.881,11,62.783,11Z" transform="translate(-62.111 -7.2)"/></g></g></g></svg>